<svg xmlns="http://www.w3.org/2000/svg" width="76" height="75.983" viewBox="0 0 76 75.983">
  <path id="Icon_awesome-instagram" data-name="Icon awesome-instagram" d="M38,20.748A19.481,19.481,0,1,0,57.484,40.229,19.45,19.45,0,0,0,38,20.748Zm0,32.146A12.665,12.665,0,1,1,50.668,40.229,12.688,12.688,0,0,1,38,52.894ZM62.825,19.951a4.544,4.544,0,1,1-4.544-4.544A4.533,4.533,0,0,1,62.825,19.951Zm12.9,4.612c-.288-6.087-1.679-11.478-6.138-15.921C65.148,4.2,59.756,2.81,53.669,2.5c-6.273-.356-25.076-.356-31.349,0C16.25,2.793,10.859,4.183,6.4,8.625S.567,18.459.262,24.546c-.356,6.273-.356,25.076,0,31.349C.55,61.982,1.94,67.374,6.4,71.816s9.834,5.832,15.921,6.138c6.273.356,25.076.356,31.349,0,6.087-.288,11.478-1.679,15.921-6.138,4.442-4.442,5.832-9.834,6.138-15.921.356-6.273.356-25.059,0-31.332Zm-8.1,38.064A12.822,12.822,0,0,1,60.4,69.849c-5,1.984-16.87,1.526-22.4,1.526s-17.413.441-22.4-1.526a12.823,12.823,0,0,1-7.223-7.223c-1.984-5-1.526-16.87-1.526-22.4s-.441-17.413,1.526-22.4a12.823,12.823,0,0,1,7.223-7.223c5-1.984,16.87-1.526,22.4-1.526s17.413-.441,22.4,1.526a12.822,12.822,0,0,1,7.223,7.223c1.984,5,1.526,16.87,1.526,22.4S69.607,57.642,67.623,62.626Z" transform="translate(0.005 -2.238)" fill="#494748"/>
</svg>
