<svg xmlns="http://www.w3.org/2000/svg" width="76" height="76" viewBox="0 0 76 76">
  <path id="Icon_awesome-youtube-square" data-name="Icon awesome-youtube-square" d="M31.689,31.106l16.15,9.178-16.15,9.178ZM76,10.393V70.107a8.145,8.145,0,0,1-8.143,8.143H8.143A8.145,8.145,0,0,1,0,70.107V10.393A8.145,8.145,0,0,1,8.143,2.25H67.857A8.145,8.145,0,0,1,76,10.393ZM68.875,40.3s0-10.111-1.289-14.962a7.743,7.743,0,0,0-5.463-5.5C57.322,18.536,38,18.536,38,18.536s-19.322,0-24.123,1.306a7.743,7.743,0,0,0-5.462,5.5C7.125,30.173,7.125,40.3,7.125,40.3s0,10.111,1.289,14.963a7.632,7.632,0,0,0,5.462,5.412C18.678,61.964,38,61.964,38,61.964s19.322,0,24.123-1.306a7.632,7.632,0,0,0,5.463-5.412C68.875,50.412,68.875,40.3,68.875,40.3Z" transform="translate(0 -2.25)" fill="#494748"/>
</svg>
