<svg xmlns="http://www.w3.org/2000/svg" width="76" height="76" viewBox="0 0 76 76">
  <path id="Icon_metro-facebook" data-name="Icon metro-facebook" d="M65.905,1.928H15.236A12.667,12.667,0,0,0,2.571,14.6V65.26A12.666,12.666,0,0,0,15.236,77.928H40.571V44.678h-9.5v-9.5h9.5V28.053A11.875,11.875,0,0,1,52.446,16.178H64.321v9.5H52.446a2.375,2.375,0,0,0-2.375,2.375v7.125H63.133l-2.375,9.5H50.071v33.25H65.905A12.667,12.667,0,0,0,78.571,65.26V14.6A12.667,12.667,0,0,0,65.905,1.928Z" transform="translate(-2.571 -1.928)" fill="#494748"/>
</svg>
